<?xml version="1.0" standalone="no"?>
<!DOCTYPE svg PUBLIC "-//W3C//DTD SVG 20010904//EN"
 "http://www.w3.org/TR/2001/REC-SVG-20010904/DTD/svg10.dtd">
<svg version="1.0" xmlns="http://www.w3.org/2000/svg"
 width="900.000000pt" height="888.000000pt" viewBox="0 0 900.000000 888.000000"
 preserveAspectRatio="xMidYMid meet">
<metadata>
Created by potrace 1.10, written by Peter Selinger 2001-2011
</metadata>
<g transform="translate(0.000000,888.000000) scale(0.100000,-0.100000)"
fill="#000000" stroke="none">
<path d="M4063 8868 c2 -15 -71 -26 -188 -27 -44 -1 -116 -10 -160 -20 -44
-10 -123 -26 -175 -35 -52 -10 -118 -26 -146 -36 -29 -10 -80 -26 -115 -35
-35 -9 -74 -23 -86 -30 -11 -8 -43 -19 -70 -25 -26 -7 -82 -25 -123 -40 -41
-16 -104 -40 -140 -54 -138 -52 -317 -130 -360 -157 -8 -5 -42 -22 -75 -39
-84 -41 -167 -88 -185 -105 -9 -8 -36 -24 -60 -35 -25 -11 -56 -29 -70 -39
-14 -10 -63 -44 -110 -75 -47 -31 -103 -70 -125 -87 -22 -16 -70 -51 -107 -76
-38 -25 -68 -50 -68 -54 0 -5 -13 -15 -28 -23 -37 -19 -428 -406 -526 -521
-43 -49 -90 -103 -105 -120 -32 -35 -150 -195 -202 -275 -20 -30 -45 -68 -55
-84 -19 -28 -42 -67 -99 -166 -16 -28 -42 -68 -57 -87 -16 -20 -28 -41 -28
-47 0 -7 -13 -33 -29 -58 -16 -25 -32 -56 -36 -69 -4 -13 -38 -87 -76 -164
-37 -77 -71 -153 -75 -170 -4 -16 -17 -50 -29 -75 -12 -25 -27 -67 -34 -94 -7
-27 -19 -63 -28 -79 -19 -37 -109 -327 -118 -382 -4 -22 -18 -78 -30 -125 -40
-146 -79 -553 -79 -840 -1 -349 21 -576 93 -945 34 -170 86 -361 123 -450 11
-27 27 -75 35 -105 8 -30 22 -71 33 -90 10 -19 23 -54 30 -78 6 -23 23 -64 39
-90 15 -26 35 -67 45 -92 26 -65 65 -151 81 -180 8 -14 25 -45 38 -70 12 -25
35 -63 50 -85 15 -22 27 -45 27 -51 0 -6 18 -36 40 -67 22 -30 40 -60 40 -65
0 -6 11 -23 24 -39 13 -15 31 -41 40 -58 31 -56 190 -265 288 -380 132 -155
247 -273 391 -406 27 -24 78 -71 114 -104 124 -115 246 -215 261 -215 5 0 15
-7 23 -16 7 -8 37 -32 67 -52 99 -68 317 -202 327 -202 4 0 19 -8 33 -18 62
-43 451 -232 547 -266 39 -13 129 -45 200 -71 72 -26 158 -53 193 -61 34 -7
79 -22 100 -33 21 -10 60 -22 87 -26 64 -8 139 -24 192 -40 22 -7 117 -23 210
-34 92 -12 205 -26 251 -31 137 -17 495 -23 622 -11 63 7 167 16 231 21 137
11 337 43 396 64 24 8 79 20 124 26 45 6 105 20 133 30 28 11 82 27 120 35 38
9 95 27 125 39 31 13 79 29 106 36 28 8 81 29 120 47 38 18 77 33 86 33 9 0
27 8 40 19 13 10 42 24 64 31 22 7 60 23 85 35 25 13 97 49 160 80 129 64 219
114 241 133 8 7 52 37 99 67 94 59 111 71 220 150 107 78 108 79 243 194 148
126 295 267 402 386 44 49 100 112 125 139 89 99 147 172 193 241 26 39 61 89
79 112 18 24 53 76 78 117 25 41 52 82 61 93 23 26 103 161 127 213 11 25 32
72 47 104 14 33 31 66 38 74 6 8 22 40 33 71 12 31 37 92 57 136 59 136 74
176 113 305 20 69 48 157 60 195 27 82 109 453 123 557 48 352 53 420 47 663
-3 132 -12 292 -21 355 -9 63 -20 160 -25 215 -9 99 -28 201 -49 267 -5 18
-17 74 -26 123 -9 50 -33 140 -52 200 -87 274 -117 362 -131 382 -8 13 -18 40
-23 60 -7 34 -84 205 -123 273 -7 14 -31 61 -52 105 -21 44 -68 127 -103 185
-35 58 -84 139 -108 180 -24 41 -58 93 -76 116 -18 23 -60 79 -93 125 -34 46
-106 134 -160 194 -54 61 -109 123 -123 139 -87 101 -253 262 -356 347 -66 54
-128 106 -139 116 -10 10 -31 27 -46 38 -15 11 -61 45 -101 76 -75 56 -282
195 -354 237 -22 13 -74 43 -115 68 -41 24 -80 44 -85 44 -6 0 -26 11 -45 24
-19 12 -53 29 -75 36 -22 7 -53 20 -70 30 -69 42 -460 190 -499 190 -10 0 -41
11 -69 24 -29 14 -70 28 -92 31 -48 9 -171 41 -184 50 -5 3 -47 10 -93 16 -46
5 -114 19 -153 30 -38 11 -119 24 -180 29 -130 12 -158 17 -150 30 4 7 -149
10 -424 10 -337 0 -430 -3 -428 -12z m2491 -1967 c79 -37 129 -105 145 -195 8
-40 11 -549 11 -1565 0 -1647 2 -1589 -59 -1707 -17 -34 -31 -64 -31 -67 0
-17 -89 -133 -147 -189 -70 -69 -178 -131 -274 -159 -69 -20 -300 -18 -379 4
-190 51 -339 171 -422 339 -50 100 -64 210 -49 373 10 107 14 127 48 193 38
72 152 201 234 263 118 89 271 121 487 101 84 -7 130 -8 137 -1 6 6 9 190 7
512 -2 379 1 535 11 639 15 144 7 318 -16 347 -13 16 -119 9 -232 -15 -124
-26 -221 -43 -324 -54 -56 -6 -126 -20 -157 -30 -31 -11 -79 -22 -107 -25 -71
-8 -198 -35 -220 -47 -10 -5 -50 -13 -90 -18 -40 -5 -155 -22 -257 -39 -102
-17 -200 -31 -218 -31 -18 0 -48 -6 -66 -14 -30 -12 -34 -19 -41 -67 -8 -64
-8 -1584 1 -1715 7 -100 -5 -167 -54 -310 -34 -97 -51 -121 -162 -232 -109
-109 -204 -157 -349 -178 -182 -26 -295 -11 -420 57 -106 57 -122 72 -249 228
-53 66 -93 217 -93 355 1 95 4 121 31 201 54 163 185 301 370 391 l75 37 192
5 c133 3 196 8 202 16 7 8 11 369 13 1022 l3 1009 32 61 c66 127 131 154 478
199 61 8 135 21 165 30 30 9 113 24 184 35 71 11 164 28 205 39 42 11 119 25
171 31 52 7 151 23 220 36 69 13 175 29 235 34 61 6 155 21 210 34 55 13 159
34 230 46 72 12 153 28 180 35 69 19 68 19 139 -14z m-3069 -1895 c18 -14 46
-46 63 -72 75 -112 44 -254 -66 -310 -68 -35 -227 -140 -278 -184 -50 -43
-159 -169 -199 -230 -58 -88 -113 -216 -129 -296 -8 -43 -20 -93 -26 -109 -7
-17 -14 -93 -17 -170 -3 -109 -1 -152 12 -195 8 -30 24 -89 35 -130 24 -91 83
-209 157 -312 55 -77 126 -149 254 -260 73 -63 99 -106 99 -165 0 -103 -115
-227 -210 -227 -90 1 -219 92 -426 301 -101 101 -156 183 -220 325 -30 67 -60
128 -66 136 -14 16 -54 162 -74 272 -25 132 -14 426 21 585 24 109 68 230 112
310 54 99 88 155 114 190 16 22 47 65 68 95 75 105 236 257 318 299 22 11 45
27 52 35 8 9 18 16 25 16 6 0 37 16 69 36 33 20 95 51 139 69 89 37 114 35
173 -9z"/>
</g>
</svg>
